# xmcd
#
# Track frame offsets: 
#        150
#        12387
#        26126
#        38487
#        50462
#        60763
#        74717
#        84561
#        96803
#        110890
#        124223
#        138336
#        151087
#        160762
#        173572
#        187179
#        197774
#        211310
#        224898
#        234304
#        246956
#        257813
#        267774
#        281651
#
# Disc length: 3905 seconds
#
# Revision: 0
# Processed by: cddbd v1.5.2PL0 Copyright (c) Steve Scherf et al.
# Submitted via: ExactAudioCopyFreeDBPlugin 1.0
#
DISCID=610f3f18
DTITLE=Hank Snow - Milestones Of A Country Legend [CD 5)
DYEAR=1900
DGENRE=Country
TTITLE0=Honeymoon on a Rocketship
TTITLE1=The Engineer압 Child
TTITLE2=Ben Dewberry압 Final Run
TTITLE3=Born to Be Happy
TTITLE4=The Gold Rush Is Over
TTITLE5=I Cried but My Tears Were Too Late
TTITLE6=Mississippi River Blues
TTITLE7=I Went to Yout Wedding
TTITLE8=The Night I Stole Old Sammy Morgan압 Gin
TTITLE9=Just y Faded Petal from a Beautiful Bouquet
TTITLE10=Somewhere Along Life압 Highway
TTITLE11=I앐 Gonna Bid My Blues Goodbye
TTITLE12=Glory Land March
TTITLE13=Invisible Hands
TTITLE14=He앏l Understand and Say Well Done
TTITLE15=My Religion압 Not Old Fashioned (But It압 Real Genuine)
TTITLE16=My Mother
TTITLE17=I앐 Glad I앐 on the Inside Looking Out
TTITLE18=The Alphabet Song
TTITLE19=I앐 in Love with Jesus
TTITLE20=These Things Shall Pass
TTITLE21=Pray
TTITLE22=Little Children
TTITLE23=I앐 Moving on to Glory
EXTD=
EXTT0=
EXTT1=
EXTT2=
EXTT3=
EXTT4=
EXTT5=
EXTT6=
EXTT7=
EXTT8=
EXTT9=
EXTT10=
EXTT11=
EXTT12=
EXTT13=
EXTT14=
EXTT15=
EXTT16=
EXTT17=
EXTT18=
EXTT19=
EXTT20=
EXTT21=
EXTT22=
EXTT23=
PLAYORDER=
